{
  "asset": { "version": "2.0", "generator": "klotho-fixtures" },
  "scene": 0,
  "scenes": [{ "nodes": [0] }],
  "nodes": [{ "mesh": 0 }],
  "meshes": [{
    "primitives": [{
      "attributes": { "POSITION": 0 },
      "indices": 1
    }]
  }],
  "accessors": [
    {
      "bufferView": 0,
      "componentType": 5126,
      "count": 8,
      "type": "VEC3",
      "min": [-0.125, 0.0, -0.125],
      "max": [0.125, 0.25, 0.125]
    },
    {
      "bufferView": 1,
      "componentType": 5123,
      "count": 36,
      "type": "SCALAR"
    }
  ],
  "bufferViews": [
    { "buffer": 0, "byteOffset": 0, "byteLength": 96 },
    { "buffer": 0, "byteOffset": 96, "byteLength": 72 }
  ],
  "buffers": [{
    "byteLength": 168,
    "uri": "data:application/octet-stream;base64,"
  }]
}
