{
  "asset": { "version": "2.0", "generator": "klotho-fixtures" },
  "scene": 0,
  "scenes": [{ "nodes": [0] }],
  "nodes": [{
    "mesh": 0,
    "extras": {
      "klotho": {
        "affordance": "npc.human.biped",
        "license": { "spdx": "CC0-1.0", "copyright": "Klotho fixtures" }
      }
    }
  }],
  "meshes": [{
    "primitives": [{
      "attributes": { "POSITION": 0 },
      "indices": 1
    }]
  }],
  "animations": [{
    "extras": {
      "klotho": { "verb": "Move", "grounded": true, "looping": true }
    },
    "channels": [{
      "sampler": 0,
      "target": { "node": 0, "path": "translation" }
    }],
    "samplers": [{
      "input": 2,
      "interpolation": "LINEAR",
      "output": 3
    }]
  }],
  "accessors": [
    {
      "bufferView": 0,
      "componentType": 5126,
      "count": 8,
      "type": "VEC3",
      "min": [-0.125, 0.0, -0.125],
      "max": [0.125, 0.25, 0.125]
    },
    {
      "bufferView": 1,
      "componentType": 5123,
      "count": 36,
      "type": "SCALAR"
    },
    {
      "bufferView": 2,
      "componentType": 5126,
      "count": 2,
      "type": "SCALAR",
      "min": [0.0],
      "max": [0.05]
    },
    {
      "bufferView": 3,
      "componentType": 5126,
      "count": 2,
      "type": "VEC3"
    }
  ],
  "bufferViews": [
    { "buffer": 0, "byteOffset": 0, "byteLength": 96 },
    { "buffer": 0, "byteOffset": 96, "byteLength": 72 },
    { "buffer": 0, "byteOffset": 168, "byteLength": 8 },
    { "buffer": 0, "byteOffset": 176, "byteLength": 24 }
  ],
  "buffers": [{
    "byteLength": 200,
    "uri": "data:application/octet-stream;base64,"
  }]
}
